<svg width="45" height="44" viewBox="0 0 45 44" fill="none" xmlns="http://www.w3.org/2000/svg">
<path d="M43.5638 21.5651C43.5638 33.199 34.1326 42.6302 22.4987 42.6302C10.8648 42.6302 1.43359 33.199 1.43359 21.5651C1.43359 9.93116 10.8648 0.5 22.4987 0.5C34.1326 0.5 43.5638 9.93116 43.5638 21.5651Z" stroke="url(#paint0_linear_2598:21)"></path>
<g clip-path="url(#clip0_2598:21)">
<path d="M26.6756 12.4609H18.3239C15.6058 12.4609 13.3945 14.6722 13.3945 17.3903V25.7421C13.3945 28.4601 15.6058 30.6714 18.3239 30.6714H26.6757C29.3937 30.6714 31.605 28.4601 31.605 25.7421V17.3903C31.605 14.6722 29.3937 12.4609 26.6756 12.4609V12.4609ZM22.4998 26.5455C19.7541 26.5455 17.5205 24.3118 17.5205 21.5662C17.5205 18.8205 19.7541 16.5869 22.4998 16.5869C25.2454 16.5869 27.4791 18.8205 27.4791 21.5662C27.4791 24.3118 25.2454 26.5455 22.4998 26.5455ZM27.5981 17.7612C26.7867 17.7612 26.1268 17.1012 26.1268 16.2898C26.1268 15.4785 26.7867 14.8184 27.5981 14.8184C28.4095 14.8184 29.0696 15.4785 29.0696 16.2898C29.0696 17.1012 28.4095 17.7612 27.5981 17.7612Z" fill="white"></path>
<path d="M22.4977 17.6543C20.3408 17.6543 18.5859 19.409 18.5859 21.566C18.5859 23.7228 20.3408 25.4777 22.4977 25.4777C24.6546 25.4777 26.4094 23.7228 26.4094 21.566C26.4094 19.409 24.6546 17.6543 22.4977 17.6543Z" fill="white"></path>
<path d="M27.5991 15.8867C27.3765 15.8867 27.1953 16.0679 27.1953 16.2905C27.1953 16.513 27.3765 16.6942 27.5991 16.6942C27.8218 16.6942 28.0029 16.5132 28.0029 16.2905C28.0029 16.0678 27.8218 15.8867 27.5991 15.8867Z" fill="white"></path>
</g>
<defs>
<linearGradient id="paint0_linear_2598:21" x1="3.82943" y1="40.3202" x2="43.7925" y2="5.72591" gradientUnits="userSpaceOnUse">
<stop stop-color="#FFDD55"></stop>
<stop offset="0.5" stop-color="#FF543E"></stop>
<stop offset="1" stop-color="#C837AB"></stop>
</linearGradient>
<clipPath id="clip0_2598:21">
<rect width="18.2105" height="18.2105" fill="white" transform="translate(13.3945 12.4609)"></rect>
</clipPath>
</defs>
</svg>